<mxfile host="app.diagrams.net" modified="2024-03-19T08:30:03.874Z" agent="Mozilla/5.0 (Windows NT 10.0; Win64; x64) AppleWebKit/537.36 (KHTML, like Gecko) Chrome/122.0.0.0 Safari/537.36 Edg/122.0.0.0" version="23.1.8" etag="Pg8hYJerHxLaDPMFzhYj" type="github">
  <diagram name="Page-1" id="9pTBtUB3GZCsw6QHc1E0">
    <mxGraphModel>
      <root>
        <mxCell id="0" />
        <mxCell id="1" parent="0" />
      </root>
    </mxGraphModel>
  </diagram>
</mxfile>
